<?xml version="1.0" standalone="no"?>
<!DOCTYPE svg PUBLIC "-//W3C//DTD SVG 20010904//EN"
 "http://www.w3.org/TR/2001/REC-SVG-20010904/DTD/svg10.dtd">
<svg version="1.0" xmlns="http://www.w3.org/2000/svg"
 width="325.000000pt" height="187.000000pt" viewBox="0 0 325.000000 187.000000"
 preserveAspectRatio="xMidYMid meet">
<metadata>
Created by potrace 1.15, written by Peter Selinger 2001-2017
</metadata>
<g transform="translate(0.000000,187.000000) scale(0.100000,-0.100000)"
fill="#000000" stroke="none">
<path d="M40 1015 l0 -435 320 0 320 0 0 75 0 75 -240 0 -240 0 0 115 0 115
210 0 210 0 0 70 0 70 -210 0 -210 0 0 100 0 100 225 0 225 0 0 75 0 75 -305
0 -305 0 0 -435z"/>
<path d="M1098 1429 c-2 -15 -19 -26 -69 -43 -244 -81 -352 -332 -236 -549 51
-96 174 -188 273 -204 28 -5 34 -10 34 -29 0 -23 3 -24 79 -24 73 0 80 2 83
21 2 15 19 26 68 42 135 45 229 133 270 252 74 214 -69 456 -297 503 -29 6
-39 13 -41 30 -3 21 -9 22 -82 22 -72 0 -79 -2 -82 -21z m2 -415 l0 -235 -22
7 c-49 15 -105 63 -133 115 -67 124 -11 287 115 338 14 5 28 10 33 10 4 1 7
-105 7 -235z m218 217 c84 -43 132 -122 132 -216 0 -66 -16 -108 -60 -159 -31
-35 -96 -76 -120 -76 -7 0 -10 79 -10 235 0 156 3 235 10 235 6 0 27 -9 48
-19z"/>
<path d="M1740 1015 l0 -435 85 0 85 0 0 126 0 126 66 74 c37 41 70 72 74 69
5 -3 57 -93 117 -200 l108 -194 178 -1 c133 0 179 3 182 12 2 7 14 46 26 86
l21 72 166 -2 166 -3 24 -82 25 -83 83 0 c46 0 84 2 84 4 0 2 -65 197 -144
432 l-143 429 -96 3 -95 3 -143 -430 c-79 -237 -147 -427 -150 -423 -4 4 -71
121 -149 260 -112 198 -141 257 -134 272 5 10 63 81 130 157 66 76 124 144
128 151 5 9 -14 12 -87 12 l-94 0 -169 -192 -169 -192 -3 192 -2 192 -85 0
-85 0 0 -435z m1168 80 c28 -94 54 -178 58 -188 6 -15 -5 -17 -115 -17 -67 0
-121 3 -121 8 -1 24 116 389 121 379 3 -7 29 -89 57 -182z"/>
</g>
</svg>
